{
  "accessors": [
    {
      "bufferView": 1,
      "componentType": 5126,
      "count": 65532,
      "max": [
        0.5058032274246216,
        -0.4715726971626282,
        -0.7074509859085083
      ],
      "min": [
        -1.3211328983306885,
        -0.7692364454269409,
        -1.3967022895812988
      ],
      "type": "VEC3"
    },
    {
      "bufferView": 1,
      "byteOffset": 786384,
      "componentType": 5126,
      "count": 65532,
      "max": [
        1.0,
        1.0,
        0.0427805595099926
      ],
      "min": [
        -0.06630709022283554,
        -1.0,
        -1.0
      ],
      "type": "VEC3"
    },
    {
      "bufferView": 0,
      "componentType": 5125,
      "count": 335502,
      "type": "SCALAR"
    },
    {
      "bufferView": 1,
      "byteOffset": 1572768,
      "componentType": 5126,
      "count": 65532,
      "max": [
        0.5099982023239136,
        -0.4715728163719177,
        -0.06966058164834976
      ],
      "min": [
        -1.4943681955337524,
        -0.7864153385162354,
        -1.3967010974884033
      ],
      "type": "VEC3"
    },
    {
      "bufferView": 1,
      "byteOffset": 2359152,
      "componentType": 5126,
      "count": 65532,
      "max": [
        1.0,
        1.0,
        0.07127594202756882
      ],
      "min": [
        -1.0,
        -1.0,
        -1.0
      ],
      "type": "VEC3"
    },
    {
      "bufferView": 0,
      "byteOffset": 1342008,
      "componentType": 5125,
      "count": 311649,
      "type": "SCALAR"
    },
    {
      "bufferView": 1,
      "byteOffset": 3145536,
      "componentType": 5126,
      "count": 65532,
      "max": [
        0.5099982023239136,
        -0.4715726375579834,
        0.5664547085762024
      ],
      "min": [
        -1.5000869035720825,
        -1.5838675498962402,
        -1.396700382232666
      ],
      "type": "VEC3"
    },
    {
      "bufferView": 1,
      "byteOffset": 3931920,
      "componentType": 5126,
      "count": 65532,
      "max": [
        1.0,
        1.0,
        0.6128166913986206
      ],
      "min": [
        -1.0,
        -1.0,
        -1.0
      ],
      "type": "VEC3"
    },
    {
      "bufferView": 0,
      "byteOffset": 2588604,
      "componentType": 5125,
      "count": 297684,
      "type": "SCALAR"
    },
    {
      "bufferView": 1,
      "byteOffset": 4718304,
      "componentType": 5126,
      "count": 65532,
      "max": [
        0.5028517842292786,
        -0.4715726375579834,
        0.974372386932373
      ],
      "min": [
        -1.501486897468567,
        -1.5843217372894287,
        -1.285109519958496
      ],
      "type": "VEC3"
    },
    {
      "bufferView": 1,
      "byteOffset": 5504688,
      "componentType": 5126,
      "count": 65532,
      "max": [
        1.0,
        1.0,
        0.618254542350769
      ],
      "min": [
        -1.0,
        -1.0,
        -0.9998968839645386
      ],
      "type": "VEC3"
    },
    {
      "bufferView": 0,
      "byteOffset": 3779340,
      "componentType": 5125,
      "count": 300951,
      "type": "SCALAR"
    },
    {
      "bufferView": 1,
      "byteOffset": 6291072,
      "componentType": 5126,
      "count": 65532,
      "max": [
        0.5028517842292786,
        -0.4715728759765625,
        1.3368570804595947
      ],
      "min": [
        -1.4982548952102661,
        -1.4261393547058105,
        -0.2279214709997177
      ],
      "type": "VEC3"
    },
    {
      "bufferView": 1,
      "byteOffset": 7077456,
      "componentType": 5126,
      "count": 65532,
      "max": [
        1.0,
        1.0,
        0.5469924211502075
      ],
      "min": [
        -1.0,
        -1.0,
        -0.00830408837646246
      ],
      "type": "VEC3"
    },
    {
      "bufferView": 0,
      "byteOffset": 4983144,
      "componentType": 5125,
      "count": 318807,
      "type": "SCALAR"
    },
    {
      "bufferView": 1,
      "byteOffset": 7863840,
      "componentType": 5126,
      "count": 65532,
      "max": [
        0.5028517842292786,
        -0.4715728163719177,
        1.4169268608093262
      ],
      "min": [
        -1.4943681955337524,
        -1.29973304271698,
        0.1958434134721756
      ],
      "type": "VEC3"
    },
    {
      "bufferView": 1,
      "byteOffset": 8650224,
      "componentType": 5126,
      "count": 65532,
      "max": [
        1.0,
        1.0,
        1.0
      ],
      "min": [
        -1.0,
        -1.0,
        -0.07596595585346222
      ],
      "type": "VEC3"
    },
    {
      "bufferView": 0,
      "byteOffset": 6258372,
      "componentType": 5125,
      "count": 342453,
      "type": "SCALAR"
    },
    {
      "bufferView": 1,
      "byteOffset": 9436608,
      "componentType": 5126,
      "count": 65532,
      "max": [
        0.5028190016746521,
        -0.4715730547904968,
        1.4169268608093262
      ],
      "min": [
        -1.4943681955337524,
        -0.8316690921783447,
        0.9342542290687561
      ],
      "type": "VEC3"
    },
    {
      "bufferView": 1,
      "byteOffset": 10222992,
      "componentType": 5126,
      "count": 65532,
      "max": [
        0.9999765753746033,
        1.0,
        1.0
      ],
      "min": [
        -1.0,
        -1.0,
        -0.06991011649370193
      ],
      "type": "VEC3"
    },
    {
      "bufferView": 0,
      "byteOffset": 7628184,
      "componentType": 5125,
      "count": 350970,
      "type": "SCALAR"
    },
    {
      "bufferView": 1,
      "byteOffset": 11009376,
      "componentType": 5126,
      "count": 65532,
      "max": [
        0.5028517842292786,
        -0.4715728163719177,
        1.4169273376464844
      ],
      "min": [
        -1.4943681955337524,
        -1.0961670875549316,
        0.44153672456741333
      ],
      "type": "VEC3"
    },
    {
      "bufferView": 1,
      "byteOffset": 11795760,
      "componentType": 5126,
      "count": 65532,
      "max": [
        1.0,
        1.0,
        1.0
      ],
      "min": [
        -1.0,
        -1.0,
        -0.03585497662425041
      ],
      "type": "VEC3"
    },
    {
      "bufferView": 0,
      "byteOffset": 9032064,
      "componentType": 5125,
      "count": 331512,
      "type": "SCALAR"
    },
    {
      "bufferView": 1,
      "byteOffset": 12582144,
      "componentType": 5126,
      "count": 65532,
      "max": [
        0.5084902048110962,
        -0.4715728163719177,
        1.2944340705871582
      ],
      "min": [
        -1.4943681955337524,
        -1.2928786277770996,
        -1.3744423389434814
      ],
      "type": "VEC3"
    },
    {
      "bufferView": 1,
      "byteOffset": 13368528,
      "componentType": 5126,
      "count": 65532,
      "max": [
        1.0,
        1.0,
        0.4597558081150055
      ],
      "min": [
        -1.0,
        -1.0,
        -0.24126096069812775
      ],
      "type": "VEC3"
    },
    {
      "bufferView": 0,
      "byteOffset": 10358112,
      "componentType": 5125,
      "count": 340035,
      "type": "SCALAR"
    },
    {
      "bufferView": 1,
      "byteOffset": 14154912,
      "componentType": 5126,
      "count": 65532,
      "max": [
        0.5098918676376343,
        -0.4715728163719177,
        -0.1635592132806778
      ],
      "min": [
        -1.4943681955337524,
        -0.7696040868759155,
        -1.3967010974884033
      ],
      "type": "VEC3"
    },
    {
      "bufferView": 1,
      "byteOffset": 14941296,
      "componentType": 5126,
      "count": 65532,
      "max": [
        1.0,
        1.0,
        0.030688585713505745
      ],
      "min": [
        -1.0,
        -1.0,
        -1.0
      ],
      "type": "VEC3"
    },
    {
      "bufferView": 0,
      "byteOffset": 11718252,
      "componentType": 5125,
      "count": 336273,
      "type": "SCALAR"
    },
    {
      "bufferView": 1,
      "byteOffset": 15727680,
      "componentType": 5126,
      "count": 65532,
      "max": [
        0.5060862302780151,
        -0.47157275676727295,
        1.400346279144287
      ],
      "min": [
        -1.3171765804290771,
        -0.7692362070083618,
        -1.3967008590698242
      ],
      "type": "VEC3"
    },
    {
      "bufferView": 1,
      "byteOffset": 16514064,
      "componentType": 5126,
      "count": 65532,
      "max": [
        1.0,
        1.0,
        0.0427805595099926
      ],
      "min": [
        -0.06630709022283554,
        -1.0,
        -1.0
      ],
      "type": "VEC3"
    },
    {
      "bufferView": 0,
      "byteOffset": 13063344,
      "componentType": 5125,
      "count": 344664,
      "type": "SCALAR"
    },
    {
      "bufferView": 1,
      "byteOffset": 17300448,
      "componentType": 5126,
      "count": 65532,
      "max": [
        0.5057340860366821,
        -0.47157251834869385,
        0.22200486063957214
      ],
      "min": [
        -1.4946168661117554,
        -1.4372553825378418,
        -1.396700143814087
      ],
      "type": "VEC3"
    },
    {
      "bufferView": 1,
      "byteOffset": 18086832,
      "componentType": 5126,
      "count": 65532,
      "max": [
        1.0,
        1.0,
        0.23181600868701935
      ],
      "min": [
        -1.0,
        -1.0,
        -1.0
      ],
      "type": "VEC3"
    },
    {
      "bufferView": 0,
      "byteOffset": 14442000,
      "componentType": 5125,
      "count": 343197,
      "type": "SCALAR"
    },
    {
      "bufferView": 1,
      "byteOffset": 18873216,
      "componentType": 5126,
      "count": 65532,
      "max": [
        0.5027429461479187,
        -0.47157275676727295,
        0.639004647731781
      ],
      "min": [
        -1.500916838645935,
        -1.584850788116455,
        -1.2732584476470947
      ],
      "type": "VEC3"
    },
    {
      "bufferView": 1,
      "byteOffset": 19659600,
      "componentType": 5126,
      "count": 65532,
      "max": [
        0.9999997019767761,
        1.0,
        0.6176623702049255
      ],
      "min": [
        -1.0,
        -1.0,
        -0.9427482485771179
      ],
      "type": "VEC3"
    },
    {
      "bufferView": 0,
      "byteOffset": 15814788,
      "componentType": 5125,
      "count": 341313,
      "type": "SCALAR"
    },
    {
      "bufferView": 1,
      "byteOffset": 20445984,
      "componentType": 5126,
      "count": 46743,
      "max": [
        0.5028517842292786,
        -0.4715728163719177,
        1.144284725189209
      ],
      "min": [
        -1.501423954963684,
        -1.4824367761611938,
        -0.7914729118347168
      ],
      "type": "VEC3"
    },
    {
      "bufferView": 1,
      "byteOffset": 21006900,
      "componentType": 5126,
      "count": 46743,
      "max": [
        1.0,
        1.0,
        0.5467482805252075
      ],
      "min": [
        -1.0,
        -1.0,
        -0.02206934429705143
      ],
      "type": "VEC3"
    },
    {
      "bufferView": 0,
      "byteOffset": 17180040,
      "componentType": 5125,
      "count": 225438,
      "type": "SCALAR"
    }
  ],
  "asset": {
    "extras": {
      "author": "tracyn198 (https://sketchfab.com/tracyn198)",
      "license": "CC-BY-4.0 (http://creativecommons.org/licenses/by/4.0/)",
      "source": "https://sketchfab.com/3d-models/nose-53edbd1433f14a56b1d393ffed41a77c",
      "title": "Nose"
    },
    "generator": "Sketchfab-16.16.0",
    "version": "2.0"
  },
  "bufferViews": [
    {
      "buffer": 0,
      "byteLength": 18081792,
      "name": "floatBufferViews",
      "target": 34963
    },
    {
      "buffer": 0,
      "byteLength": 21567816,
      "byteOffset": 18081792,
      "byteStride": 12,
      "name": "floatBufferViews",
      "target": 34962
    }
  ],
  "buffers": [
    {
      "byteLength": 39649608,
      "uri": "scene.bin"
    }
  ],
  "materials": [
    {
      "doubleSided": true,
      "name": "material_0",
      "pbrMetallicRoughness": {
        "baseColorFactor": [
          0.7409556523337896,
          0.7044747672633086,
          0.7044747672633086,
          1.0
        ],
        "metallicFactor": 0.0,
        "roughnessFactor": 0.6
      }
    }
  ],
  "meshes": [
    {
      "name": "Object_0",
      "primitives": [
        {
          "attributes": {
            "NORMAL": 1,
            "POSITION": 0
          },
          "indices": 2,
          "material": 0,
          "mode": 4
        }
      ]
    },
    {
      "name": "Object_1",
      "primitives": [
        {
          "attributes": {
            "NORMAL": 4,
            "POSITION": 3
          },
          "indices": 5,
          "material": 0,
          "mode": 4
        }
      ]
    },
    {
      "name": "Object_2",
      "primitives": [
        {
          "attributes": {
            "NORMAL": 7,
            "POSITION": 6
          },
          "indices": 8,
          "material": 0,
          "mode": 4
        }
      ]
    },
    {
      "name": "Object_3",
      "primitives": [
        {
          "attributes": {
            "NORMAL": 10,
            "POSITION": 9
          },
          "indices": 11,
          "material": 0,
          "mode": 4
        }
      ]
    },
    {
      "name": "Object_4",
      "primitives": [
        {
          "attributes": {
            "NORMAL": 13,
            "POSITION": 12
          },
          "indices": 14,
          "material": 0,
          "mode": 4
        }
      ]
    },
    {
      "name": "Object_5",
      "primitives": [
        {
          "attributes": {
            "NORMAL": 16,
            "POSITION": 15
          },
          "indices": 17,
          "material": 0,
          "mode": 4
        }
      ]
    },
    {
      "name": "Object_6",
      "primitives": [
        {
          "attributes": {
            "NORMAL": 19,
            "POSITION": 18
          },
          "indices": 20,
          "material": 0,
          "mode": 4
        }
      ]
    },
    {
      "name": "Object_7",
      "primitives": [
        {
          "attributes": {
            "NORMAL": 22,
            "POSITION": 21
          },
          "indices": 23,
          "material": 0,
          "mode": 4
        }
      ]
    },
    {
      "name": "Object_8",
      "primitives": [
        {
          "attributes": {
            "NORMAL": 25,
            "POSITION": 24
          },
          "indices": 26,
          "material": 0,
          "mode": 4
        }
      ]
    },
    {
      "name": "Object_9",
      "primitives": [
        {
          "attributes": {
            "NORMAL": 28,
            "POSITION": 27
          },
          "indices": 29,
          "material": 0,
          "mode": 4
        }
      ]
    },
    {
      "name": "Object_10",
      "primitives": [
        {
          "attributes": {
            "NORMAL": 31,
            "POSITION": 30
          },
          "indices": 32,
          "material": 0,
          "mode": 4
        }
      ]
    },
    {
      "name": "Object_11",
      "primitives": [
        {
          "attributes": {
            "NORMAL": 34,
            "POSITION": 33
          },
          "indices": 35,
          "material": 0,
          "mode": 4
        }
      ]
    },
    {
      "name": "Object_12",
      "primitives": [
        {
          "attributes": {
            "NORMAL": 37,
            "POSITION": 36
          },
          "indices": 38,
          "material": 0,
          "mode": 4
        }
      ]
    },
    {
      "name": "Object_13",
      "primitives": [
        {
          "attributes": {
            "NORMAL": 40,
            "POSITION": 39
          },
          "indices": 41,
          "material": 0,
          "mode": 4
        }
      ]
    }
  ],
  "nodes": [
    {
      "children": [
        1
      ],
      "matrix": [
        1.0,
        0.0,
        0.0,
        0.0,
        0.0,
        2.220446049250313e-16,
        -1.0,
        0.0,
        0.0,
        1.0,
        2.220446049250313e-16,
        0.0,
        0.0,
        0.0,
        0.0,
        1.0
      ],
      "name": "Sketchfab_model"
    },
    {
      "children": [
        2,
        3,
        4,
        5,
        6,
        7,
        8,
        9,
        10,
        11,
        12,
        13,
        14,
        15
      ],
      "name": "nose.obj.cleaner.materialmerger.gles"
    },
    {
      "mesh": 0,
      "name": "Object_2"
    },
    {
      "mesh": 1,
      "name": "Object_3"
    },
    {
      "mesh": 2,
      "name": "Object_4"
    },
    {
      "mesh": 3,
      "name": "Object_5"
    },
    {
      "mesh": 4,
      "name": "Object_6"
    },
    {
      "mesh": 5,
      "name": "Object_7"
    },
    {
      "mesh": 6,
      "name": "Object_8"
    },
    {
      "mesh": 7,
      "name": "Object_9"
    },
    {
      "mesh": 8,
      "name": "Object_10"
    },
    {
      "mesh": 9,
      "name": "Object_11"
    },
    {
      "mesh": 10,
      "name": "Object_12"
    },
    {
      "mesh": 11,
      "name": "Object_13"
    },
    {
      "mesh": 12,
      "name": "Object_14"
    },
    {
      "mesh": 13,
      "name": "Object_15"
    }
  ],
  "scene": 0,
  "scenes": [
    {
      "name": "Sketchfab_Scene",
      "nodes": [
        0
      ]
    }
  ]
}
